# xmcd CD database file
#
# Track frame offsets:
#	150
#	41065
#	85456
#	120957
#	155195
#	166263
#	225117
#	230921
#	281995
#
# Disc length: 4527 seconds
#
# Revision: 0
# Processed by: cddbd v1.5.2PL0 Copyright (c) Steve Scherf et al.
# Submitted via: CDex 1.70beta2
#
DISCID=7411ad09
DTITLE=Barre Phillips - Trignition
DYEAR=1999
DGENRE=Jazz
TTITLE0=The Incomplete Touching Of The Ground
TTITLE1=Spherics and Whistles
TTITLE2=Dale Of The Merry Years
TTITLE3=Confirmation of Judgement
TTITLE4=Inconabular
TTITLE5=Bigman, Hugeman!
TTITLE6=Saylaa
TTITLE7=It Was Probably The Last One To Be Named
TTITLE8=Anodyne
EXTD=YEAR: 1999
EXTT0=
EXTT1=
EXTT2=
EXTT3=
EXTT4=
EXTT5=
EXTT6=
EXTT7=
EXTT8=
PLAYORDER=
